<svg data-v-fde0c5aa="" xmlns="http://www.w3.org/2000/svg" viewBox="0 0 300 300" class="iconLeft"><!----><defs data-v-fde0c5aa=""><!----></defs><rect data-v-fde0c5aa="" fill="transparent" x="0" y="0" width="300px" height="300px" class="logo-background-square"></rect><defs data-v-fde0c5aa=""><!----></defs><g data-v-fde0c5aa="" id="83a0ee01-122d-4724-a2e9-096a9ec162ee" fill="#000000" transform="matrix(2.336343193082873,0,0,2.336343193082873,88.13860042078673,131.35598183166408)"><path d="M6.24 7.03L4.62 13.02L3.23 13.02L0.50 3.78L1.71 3.78L3.93 12.14L6.12 3.78L7.39 3.78L9.58 12.17L11.82 3.78L12.95 3.78L10.23 13.02L8.85 13.02L7.21 7.03L6.73 4.94L6.72 4.94L6.24 7.03ZM20.29 9.16L20.29 9.16Q20.29 9.55 20.23 9.94L20.23 9.94L14.95 9.94L14.95 9.94Q15.05 11.00 15.66 11.59L15.66 11.59L15.66 11.59Q16.27 12.18 17.23 12.18L17.23 12.18L17.23 12.18Q18.00 12.18 18.52 11.91L18.52 11.91L18.52 11.91Q19.03 11.65 19.21 11.14L19.21 11.14L20.15 11.63L20.15 11.63Q19.73 12.38 19.03 12.77L19.03 12.77L19.03 12.77Q18.33 13.16 17.23 13.16L17.23 13.16L17.23 13.16Q15.65 13.16 14.75 12.19L14.75 12.19L14.75 12.19Q13.85 11.23 13.85 9.52L13.85 9.52L13.85 9.52Q13.85 7.81 14.71 6.85L14.71 6.85L14.71 6.85Q15.57 5.88 17.15 5.88L17.15 5.88L17.15 5.88Q18.13 5.88 18.84 6.31L18.84 6.31L18.84 6.31Q19.56 6.75 19.92 7.49L19.92 7.49L19.92 7.49Q20.29 8.23 20.29 9.16L20.29 9.16ZM17.15 6.86L17.15 6.86Q16.23 6.86 15.66 7.41L15.66 7.41L15.66 7.41Q15.09 7.95 14.97 8.95L14.97 8.95L19.21 8.95L19.21 8.95Q19.10 7.97 18.56 7.41L18.56 7.41L18.56 7.41Q18.03 6.86 17.15 6.86L17.15 6.86ZM25.86 5.88L25.86 5.88Q27.33 5.88 28.19 6.85L28.19 6.85L28.19 6.85Q29.05 7.83 29.05 9.52L29.05 9.52L29.05 9.52Q29.05 11.21 28.19 12.19L28.19 12.19L28.19 12.19Q27.33 13.16 25.86 13.16L25.86 13.16L25.86 13.16Q25.05 13.16 24.41 12.79L24.41 12.79L24.41 12.79Q23.77 12.42 23.46 11.80L23.46 11.80L23.39 13.02L22.41 13.02L22.41 2.80L23.53 2.80L23.53 7.11L23.53 7.11Q23.87 6.55 24.48 6.22L24.48 6.22L24.48 6.22Q25.09 5.88 25.86 5.88L25.86 5.88ZM25.73 12.18L25.73 12.18Q26.75 12.18 27.34 11.46L27.34 11.46L27.34 11.46Q27.93 10.74 27.93 9.52L27.93 9.52L27.93 9.52Q27.93 8.30 27.34 7.58L27.34 7.58L27.34 7.58Q26.75 6.86 25.73 6.86L25.73 6.86L25.73 6.86Q24.72 6.86 24.13 7.56L24.13 7.56L24.13 7.56Q23.53 8.26 23.53 9.44L23.53 9.44L23.53 9.60L23.53 9.60Q23.53 10.78 24.13 11.48L24.13 11.48L24.13 11.48Q24.72 12.18 25.73 12.18L25.73 12.18ZM34.34 3.64L34.34 3.64Q36.82 3.64 37.91 5.60L37.91 5.60L36.95 6.38L36.95 6.38Q36.53 5.46 35.95 5.07L35.95 5.07L35.95 5.07Q35.36 4.69 34.36 4.69L34.36 4.69L34.36 4.69Q33.29 4.69 32.68 5.13L32.68 5.13L32.68 5.13Q32.07 5.57 32.07 6.26L32.07 6.26L32.07 6.26Q32.07 6.71 32.31 7.00L32.31 7.00L32.31 7.00Q32.55 7.29 33.10 7.51L33.10 7.51L33.10 7.51Q33.66 7.73 34.64 7.90L34.64 7.90L34.64 7.90Q36.47 8.20 37.23 8.82L37.23 8.82L37.23 8.82Q38.00 9.44 38.00 10.53L38.00 10.53L38.00 10.53Q38.00 11.31 37.55 11.91L37.55 11.91L37.55 11.91Q37.11 12.50 36.30 12.83L36.30 12.83L36.30 12.83Q35.49 13.16 34.43 13.16L34.43 13.16L34.43 13.16Q33.03 13.16 32.04 12.61L32.04 12.61L32.04 12.61Q31.05 12.07 30.53 11.16L30.53 11.16L31.50 10.37L31.50 10.37Q31.88 11.20 32.61 11.65L32.61 11.65L32.61 11.65Q33.35 12.11 34.45 12.11L34.45 12.11L34.45 12.11Q35.55 12.11 36.19 11.71L36.19 11.71L36.19 11.71Q36.83 11.31 36.83 10.58L36.83 10.58L36.83 10.58Q36.83 9.97 36.27 9.60L36.27 9.60L36.27 9.60Q35.71 9.24 34.29 8.99L34.29 8.99L34.29 8.99Q32.44 8.67 31.67 8.06L31.67 8.06L31.67 8.06Q30.90 7.46 30.90 6.38L30.90 6.38L30.90 6.38Q30.90 5.64 31.32 5.01L31.32 5.01L31.32 5.01Q31.74 4.38 32.52 4.01L32.52 4.01L32.52 4.01Q33.31 3.64 34.34 3.64L34.34 3.64ZM44.03 11.59L44.42 12.53L44.42 12.53Q43.72 13.16 42.62 13.16L42.62 13.16L42.62 13.16Q41.76 13.16 41.22 12.70L41.22 12.70L41.22 12.70Q40.68 12.24 40.67 11.28L40.67 11.28L40.67 6.99L39.27 6.99L39.27 6.02L40.67 6.02L40.67 4.34L41.79 4.03L41.79 6.02L44.38 6.02L44.38 6.99L41.79 6.99L41.79 11.09L41.79 11.09Q41.79 11.59 42.08 11.85L42.08 11.85L42.08 11.85Q42.36 12.11 42.84 12.11L42.84 12.11L42.84 12.11Q43.51 12.11 44.03 11.59L44.03 11.59ZM50.95 6.02L52.07 6.02L52.07 13.02L51.09 13.02L51.02 11.96L51.02 11.96Q50.32 13.16 48.51 13.16L48.51 13.16L48.51 13.16Q47.38 13.16 46.66 12.53L46.66 12.53L46.66 12.53Q45.93 11.90 45.93 10.60L45.93 10.60L45.93 6.02L47.05 6.02L47.05 10.30L47.05 10.30Q47.05 11.33 47.47 11.75L47.47 11.75L47.47 11.75Q47.89 12.18 48.71 12.18L48.71 12.18L48.71 12.18Q49.67 12.18 50.31 11.59L50.31 11.59L50.31 11.59Q50.95 11.00 50.95 9.83L50.95 9.83L50.95 6.02ZM59.77 2.80L60.89 2.80L60.89 13.02L59.91 13.02L59.84 11.80L59.84 11.80Q59.53 12.42 58.89 12.79L58.89 12.79L58.89 12.79Q58.25 13.16 57.44 13.16L57.44 13.16L57.44 13.16Q55.97 13.16 55.11 12.19L55.11 12.19L55.11 12.19Q54.25 11.21 54.25 9.52L54.25 9.52L54.25 9.52Q54.25 7.83 55.11 6.85L55.11 6.85L55.11 6.85Q55.97 5.88 57.44 5.88L57.44 5.88L57.44 5.88Q58.21 5.88 58.82 6.22L58.82 6.22L58.82 6.22Q59.43 6.55 59.77 7.11L59.77 7.11L59.77 2.80ZM57.57 12.18L57.57 12.18Q58.58 12.18 59.17 11.48L59.17 11.48L59.17 11.48Q59.77 10.78 59.77 9.60L59.77 9.60L59.77 9.44L59.77 9.44Q59.77 8.26 59.17 7.56L59.17 7.56L59.17 7.56Q58.58 6.86 57.57 6.86L57.57 6.86L57.57 6.86Q56.55 6.86 55.96 7.58L55.96 7.58L55.96 7.58Q55.37 8.30 55.37 9.52L55.37 9.52L55.37 9.52Q55.37 10.74 55.96 11.46L55.96 11.46L55.96 11.46Q56.55 12.18 57.57 12.18L57.57 12.18ZM64.05 4.68L64.05 4.68Q63.67 4.68 63.44 4.44L63.44 4.44L63.44 4.44Q63.21 4.21 63.21 3.84L63.21 3.84L63.21 3.84Q63.21 3.46 63.44 3.23L63.44 3.23L63.44 3.23Q63.67 3.00 64.05 3.00L64.05 3.00L64.05 3.00Q64.43 3.00 64.66 3.23L64.66 3.23L64.66 3.23Q64.89 3.46 64.89 3.84L64.89 3.84L64.89 3.84Q64.89 4.21 64.66 4.44L64.66 4.44L64.66 4.44Q64.43 4.68 64.05 4.68L64.05 4.68ZM64.61 6.02L64.61 13.02L63.49 13.02L63.49 6.02L64.61 6.02ZM70.17 5.88L70.17 5.88Q71.75 5.88 72.65 6.85L72.65 6.85L72.65 6.85Q73.56 7.81 73.56 9.52L73.56 9.52L73.56 9.52Q73.56 11.23 72.65 12.19L72.65 12.19L72.65 12.19Q71.75 13.16 70.17 13.16L70.17 13.16L70.17 13.16Q68.59 13.16 67.68 12.19L67.68 12.19L67.68 12.19Q66.78 11.23 66.78 9.52L66.78 9.52L66.78 9.52Q66.78 7.81 67.68 6.85L67.68 6.85L67.68 6.85Q68.59 5.88 70.17 5.88L70.17 5.88ZM70.17 6.85L70.17 6.85Q69.10 6.85 68.50 7.56L68.50 7.56L68.50 7.56Q67.90 8.27 67.90 9.52L67.90 9.52L67.90 9.52Q67.90 10.77 68.50 11.48L68.50 11.48L68.50 11.48Q69.10 12.19 70.17 12.19L70.17 12.19L70.17 12.19Q71.23 12.19 71.83 11.48L71.83 11.48L71.83 11.48Q72.44 10.77 72.44 9.52L72.44 9.52L72.44 9.52Q72.44 8.27 71.83 7.56L71.83 7.56L71.83 7.56Q71.23 6.85 70.17 6.85L70.17 6.85Z"></path></g><defs data-v-fde0c5aa=""><linearGradient data-v-fde0c5aa="" gradientTransform="rotate(25)" id="e86f5ac3-c96c-4bad-942f-298a1bdf7663" x1="0%" y1="0%" x2="100%" y2="0%"><stop data-v-fde0c5aa="" offset="0%" stop-color="#288B58" stop-opacity="1"></stop><stop data-v-fde0c5aa="" offset="100%" stop-color="#1522F1" stop-opacity="1"></stop></linearGradient></defs><g data-v-fde0c5aa="" id="6c7b71d4-b74a-409b-a490-251ede9aeb4e" stroke="none" fill="url(#e86f5ac3-c96c-4bad-942f-298a1bdf7663)" transform="matrix(1.1345866255415056,0,0,1.1345866255415056,40,131.84661399133591)"><path d="M4.029 14.362L14.362 4.028l.707.707L4.736 15.07zM17.135 27.47L27.47 17.135l.707.707-10.333 10.333zM4.029 17.841l.707-.707 10.333 10.334-.707.707zM17.135 4.735l.708-.707L28.176 14.36l-.707.707z"></path><g><path d="M16 1.414l1.683 1.683L16 4.779l-1.683-1.683L16 1.414M16 0l-3.097 3.097L16 6.194l3.097-3.097L16 0zM16 27.221l1.683 1.683L16 30.586l-1.683-1.683L16 27.221m0-1.415l-3.097 3.097L16 32l3.097-3.097L16 25.806zM3.097 14.317L4.779 16l-1.683 1.683L1.414 16l1.683-1.683m0-1.414L0 16l3.097 3.097L6.194 16l-3.097-3.097zM28.903 14.317L30.586 16l-1.683 1.683L27.221 16l1.682-1.683m0-1.414L25.806 16l3.097 3.097L32 16l-3.097-3.097z"></path></g></g><!----></svg>